<?xml version="1.0" standalone="no"?>
<!DOCTYPE svg PUBLIC "-//W3C//DTD SVG 20010904//EN"
 "http://www.w3.org/TR/2001/REC-SVG-20010904/DTD/svg10.dtd">
<svg version="1.0" xmlns="http://www.w3.org/2000/svg"
 width="901.000000pt" height="901.000000pt" viewBox="0 0 901.000000 901.000000"
 preserveAspectRatio="xMidYMid meet">
<metadata>
Created by potrace 1.11, written by Peter Selinger 2001-2013
</metadata>
<g transform="translate(0.000000,901.000000) scale(0.100000,-0.100000)"
fill="#000000" stroke="none">
<path d="M4328 9005 c-2 -2 -57 -5 -123 -9 -66 -3 -131 -8 -145 -10 -14 -2
-56 -8 -95 -12 -38 -4 -72 -8 -75 -9 -3 -1 -32 -5 -65 -9 -33 -5 -114 -19
-180 -33 -66 -13 -131 -26 -145 -29 -158 -31 -542 -152 -701 -221 -24 -11 -84
-37 -134 -59 -355 -154 -742 -398 -1075 -677 -112 -94 -409 -390 -499 -497
-35 -41 -73 -86 -84 -100 -88 -104 -276 -373 -374 -535 -67 -110 -210 -391
-258 -505 -15 -36 -33 -78 -40 -95 -62 -135 -200 -576 -221 -704 -3 -14 -7
-32 -10 -40 -2 -8 -7 -30 -10 -50 -3 -20 -9 -54 -14 -76 -14 -66 -39 -225 -45
-295 -4 -36 -8 -76 -11 -90 -24 -143 -23 -738 1 -893 2 -12 6 -49 9 -82 3 -33
8 -69 10 -80 2 -11 7 -45 11 -75 4 -30 16 -100 27 -155 11 -55 22 -111 24
-125 27 -142 114 -433 191 -635 35 -94 38 -100 72 -177 12 -26 21 -50 21 -53
0 -12 160 -324 207 -405 27 -47 56 -96 64 -110 8 -14 16 -27 19 -30 3 -3 11
-16 18 -30 31 -60 302 -431 351 -481 9 -9 44 -49 79 -90 78 -92 306 -319 432
-429 313 -273 719 -531 1110 -707 164 -74 440 -174 585 -213 158 -43 191 -51
205 -55 52 -12 281 -58 310 -61 19 -2 60 -9 90 -14 30 -5 87 -12 125 -16 39
-3 72 -8 75 -9 12 -7 296 -19 455 -19 225 1 422 14 595 40 19 2 54 7 76 10 23
3 53 7 65 9 13 3 38 8 54 10 578 99 1222 360 1710 694 269 184 439 324 670
556 174 174 336 358 415 471 8 12 51 73 95 135 183 260 335 533 460 830 81
192 196 541 221 669 3 14 10 43 16 65 12 46 11 44 38 185 10 58 22 128 25 155
4 28 8 57 10 65 2 8 7 46 11 85 3 38 7 77 9 87 23 117 23 653 1 853 -2 17 -6
61 -10 98 -4 37 -9 76 -11 85 -1 9 -6 42 -10 72 -8 67 -59 322 -80 405 -9 33
-17 68 -19 77 -73 294 -228 683 -399 998 -83 154 -279 461 -299 468 -4 2 -8 8
-8 13 0 8 -157 216 -185 245 -5 6 -32 37 -60 70 -27 32 -126 136 -220 230
-356 356 -723 622 -1163 843 -226 114 -492 221 -667 271 -16 5 -61 18 -100 30
-38 11 -77 23 -85 25 -8 2 -51 12 -95 23 -68 17 -148 35 -265 57 -26 5 -212
33 -265 40 -16 2 -61 7 -100 10 -38 3 -92 9 -120 12 -49 5 -492 12 -497 8z"/>
</g>
</svg>
