<?xml version="1.0" standalone="no"?>
<!DOCTYPE svg PUBLIC "-//W3C//DTD SVG 20010904//EN"
 "http://www.w3.org/TR/2001/REC-SVG-20010904/DTD/svg10.dtd">
<svg version="1.0" xmlns="http://www.w3.org/2000/svg"
 width="16.000000pt" height="16.000000pt" viewBox="0 0 16.000000 16.000000"
 preserveAspectRatio="xMidYMid meet">
<metadata>
Created by potrace 1.11, written by Peter Selinger 2001-2013
</metadata>
<g transform="translate(0.000000,16.000000) scale(0.005714,-0.005714)"
fill="#000000" stroke="none">
<path d="M733 2783 c-56 -19 -123 -80 -153 -139 l-25 -49 -3 -474 c-3 -536 -2
-544 68 -623 109 -124 289 -130 406 -13 84 84 84 82 84 615 0 531 0 531 -81
612 -27 27 -66 56 -87 65 -49 22 -156 25 -209 6z"/>
<path d="M1865 2787 c-61 -25 -94 -47 -129 -89 -65 -75 -66 -88 -66 -603 0
-533 -1 -525 84 -610 138 -138 358 -102 447 73 l24 47 3 474 c3 537 2 544 -68
624 -22 25 -60 55 -85 67 -54 26 -166 35 -210 17z"/>
<path d="M750 1110 c-42 -12 -105 -56 -139 -96 -48 -59 -64 -120 -57 -217 5
-71 8 -96 20 -152 26 -117 100 -271 173 -361 106 -128 239 -210 412 -255 93
-24 121 -27 245 -25 167 3 241 19 371 81 205 98 345 269 415 504 29 98 33 129
34 236 1 77 -3 97 -24 138 -63 124 -198 182 -333 143 -65 -19 -137 -79 -166
-139 -11 -23 -26 -85 -34 -137 -30 -201 -118 -280 -300 -267 -117 9 -167 36
-209 114 -28 51 -32 65 -48 177 -18 119 -69 194 -166 241 -49 23 -139 30 -194
15z"/>
</g>
</svg>
